<svg width="24" height="24" viewBox="0 0 24 24" fill="none" xmlns="http://www.w3.org/2000/svg">
<path d="M3.15248 21.9609C2.8937 21.9609 2.69037 21.8962 2.5425 21.7668C2.35765 21.6558 2.21902 21.494 2.1266 21.2813C2.03418 21.0687 2.01107 20.8514 2.05729 20.6295C2.1035 20.4075 2.20978 20.2226 2.37614 20.0747L20.1211 2.32155C20.195 2.22908 20.3198 2.14587 20.4954 2.07189C20.671 1.99792 20.805 1.96094 20.8974 1.96094C21.0638 1.96094 21.2116 1.98868 21.341 2.04416C21.4704 2.09963 21.5906 2.18285 21.7015 2.29381C21.8124 2.40477 21.8955 2.52497 21.951 2.65442C22.0065 2.78387 22.0342 2.93181 22.0342 3.09825C21.9972 3.28318 21.9602 3.42187 21.9233 3.51434C21.8493 3.68077 21.7662 3.80097 21.6737 3.87495L3.92882 21.6281C3.74398 21.85 3.4852 21.9609 3.15248 21.9609ZM20.8974 20.9346C20.5832 20.9346 20.3198 20.8283 20.1072 20.6156C19.8946 20.4029 19.7883 20.1394 19.7883 19.825V4.20782H4.17836C3.86412 4.20782 3.60072 4.10148 3.38815 3.88882C3.17558 3.67615 3.0693 3.41262 3.0693 3.09825C3.0693 2.78387 3.17558 2.52035 3.38815 2.30768C3.60072 2.09501 3.86412 1.98868 4.17836 1.98868H20.8974C21.2301 1.98868 21.4981 2.09039 21.7015 2.29381C21.9048 2.49723 22.0065 2.76538 22.0065 3.09825V19.825C22.0065 20.1394 21.9002 20.4029 21.6876 20.6156C21.475 20.8283 21.2116 20.9346 20.8974 20.9346Z" fill="#9481FF"/>
</svg>
