<svg width="22" height="24" viewBox="0 0 22 24" fill="none" xmlns="http://www.w3.org/2000/svg">
<path d="M5.43918 21.5139C5.15797 21.2327 5 20.8512 5 20.4534C5 20.0557 5.15797 19.6742 5.43918 19.3929L12.8642 11.9679L5.43918 4.54294C5.16595 4.26004 5.01475 3.88114 5.01817 3.48784C5.02159 3.09455 5.17934 2.71833 5.45746 2.44022C5.73557 2.1621 6.11179 2.00435 6.50508 2.00093C6.89838 1.99752 7.27728 2.14871 7.56018 2.42195L16.0457 10.9074C16.3269 11.1887 16.4849 11.5702 16.4849 11.9679C16.4849 12.3657 16.3269 12.7472 16.0457 13.0284L7.56018 21.5139C7.27889 21.7952 6.89743 21.9531 6.49968 21.9531C6.10193 21.9531 5.72047 21.7952 5.43918 21.5139Z" fill="#B5FF08"/>
</svg>
