<svg width="22" height="24" viewBox="0 0 22 24" fill="none" xmlns="http://www.w3.org/2000/svg">
<path d="M16.303 2.43918C16.5842 2.72047 16.7422 3.10193 16.7422 3.49968C16.7422 3.89743 16.5842 4.27889 16.303 4.56018L8.87801 11.9852L16.303 19.4102C16.5762 19.6931 16.7274 20.072 16.724 20.4653C16.7206 20.8586 16.5628 21.2348 16.2847 21.5129C16.0066 21.791 15.6304 21.9488 15.2371 21.9522C14.8438 21.9556 14.4649 21.8044 14.182 21.5312L5.69651 13.0457C5.4153 12.7644 5.25733 12.3829 5.25733 11.9852C5.25733 11.5874 5.4153 11.206 5.69651 10.9247L14.182 2.43918C14.4633 2.15797 14.8448 2 15.2425 2C15.6403 2 16.0217 2.15797 16.303 2.43918Z" fill="#B5FF08"/>
</svg>
