<svg width="23" height="29" viewBox="0 0 23 29" fill="none" xmlns="http://www.w3.org/2000/svg">
<g clip-path="url(#clip0_1450_9308)">
<path d="M2.89196 24.8583C3.90895 26.3222 5.29949 28.324 7.09357 28.324V28.3205H7.18498C7.86984 28.2771 8.53946 28.0979 9.15543 27.7931H9.17267C9.95229 27.412 10.8069 27.2121 11.6735 27.2084C12.5034 27.2175 13.3208 27.4128 14.0664 27.7801H14.0716C14.6946 28.0963 15.38 28.2679 16.0774 28.2823H16.1792C17.9841 28.2553 19.1378 26.7384 20.3451 24.9087C21.1739 23.7135 21.8163 22.3977 22.25 21.0069V21C21.5704 20.7117 20.9494 20.2993 20.4184 19.7836C19.832 19.2261 19.3666 18.5524 19.0513 17.8048C18.7361 17.0572 18.578 16.2518 18.5868 15.4396C18.6038 14.3854 18.8836 13.3524 19.4003 12.4354C19.9169 11.5185 20.654 10.7471 21.5438 10.192C20.9766 9.37707 20.2289 8.70631 19.3599 8.23282C18.4909 7.75933 17.5245 7.49611 16.537 7.464C16.3724 7.44923 16.2249 7.44141 16.0989 7.44141C15.0096 7.51036 13.9425 7.78319 12.9523 8.24591H12.9316C12.4223 8.49466 11.8757 8.65671 11.3139 8.7255C10.7214 8.66226 10.1448 8.49371 9.61074 8.22768H9.59177C8.73578 7.81836 7.80992 7.57802 6.86419 7.5196H6.78658C5.63538 7.55608 4.51323 7.89262 3.52964 8.49637C2.54603 9.10012 1.73459 9.95046 1.17449 10.9644C0.0454163 13.1994 -0.282374 15.7588 0.246607 18.2093C0.663483 20.5818 1.5618 22.8421 2.88536 24.8487L2.89196 24.8583Z" fill="white"/>
<path d="M11.1 7.14478C11.1889 7.15275 11.2781 7.15624 11.3674 7.15521C12.0995 7.11797 12.8157 6.92572 13.4691 6.59101C14.1225 6.25628 14.6987 5.78661 15.1599 5.21256C16.1822 3.98354 16.6844 2.39924 16.5586 0.800781C15.0035 0.964483 13.5668 1.71274 12.535 2.89633C11.5165 4.0648 11.0004 5.59296 11.1 7.14478Z" fill="white"/>
</g>
<defs>
<clipPath id="clip0_1450_9308">
<rect width="23" height="28" fill="white" transform="translate(0 0.800781)"/>
</clipPath>
</defs>
</svg>
