<svg width="44" height="39" viewBox="0 0 44 39" fill="none" xmlns="http://www.w3.org/2000/svg">
<g opacity="0.84992" clip-path="url(#clip0_1450_3463)">
<path fill-rule="evenodd" clip-rule="evenodd" d="M42.3384 12.1615H33.426C29.2784 12.1687 25.9185 15.4371 25.9109 19.4716C25.9054 23.5153 29.269 26.7982 33.426 26.8036H42.3459V27.4461C42.3459 34.4996 38.0599 38.6706 30.8069 38.6706H11.7939C4.53894 38.6706 0.25293 34.4996 0.25293 27.4461V12.0832C0.25293 5.02962 4.53894 0.875 11.7939 0.875H30.7993C38.0525 0.875 42.3384 5.02962 42.3384 12.0832V12.1615ZM10.2281 12.145H22.0983H22.1057H22.1208C23.0094 12.1414 23.7277 11.4371 23.724 10.5709C23.7203 9.70645 22.9944 9.00764 22.1057 9.01128H10.2281C9.34505 9.01492 8.62853 9.71191 8.62479 10.5727C8.62104 11.4371 9.33943 12.1414 10.2281 12.145Z" fill="white"/>
<path opacity="0.4" d="M29.7964 20.3956C30.2366 22.3929 31.9918 23.7981 33.9957 23.7616H40.8356C41.6693 23.7616 42.3457 23.0727 42.3457 22.2211V16.9055C42.3438 16.0558 41.6693 15.3651 40.8356 15.3633H33.8346C31.5552 15.3706 29.7142 17.2582 29.7178 19.5843C29.7178 19.8567 29.7447 20.1289 29.7964 20.3956Z" fill="white"/>
<path d="M33.9269 21.6643C35.0893 21.6643 36.0316 20.7243 36.0316 19.5646C36.0316 18.4049 35.0893 17.4648 33.9269 17.4648C32.7645 17.4648 31.8223 18.4049 31.8223 19.5646C31.8223 20.7243 32.7645 21.6643 33.9269 21.6643Z" fill="white"/>
</g>
<defs>
<clipPath id="clip0_1450_3463">
<rect width="43" height="39" fill="white" transform="translate(0.25293)"/>
</clipPath>
</defs>
</svg>
