<svg width="59" height="47" viewBox="0 0 59 47" fill="none" xmlns="http://www.w3.org/2000/svg">
<g opacity="0.84992">
<path d="M43.95 9.50413C41.4533 6.49198 38.0842 4.32065 34.3026 3.28651C30.5211 2.25237 26.5112 2.4058 22.8204 3.72589C19.1296 5.04597 15.9377 7.46837 13.6804 10.6624C11.4232 13.8565 10.2106 17.6666 10.208 21.5726V26.7547" stroke="white" stroke-opacity="0.4" stroke-width="4.92496" stroke-linecap="round" stroke-linejoin="round"/>
<path d="M16.2646 37.7559C18.8828 40.5192 22.2735 42.436 25.9977 43.2581C29.722 44.0803 33.6083 43.7699 37.1534 42.3671C40.6985 40.9643 43.7392 38.5338 45.8817 35.3902C48.0243 32.2466 49.1701 28.5348 49.1707 24.7353V21.2852" stroke="white" stroke-opacity="0.4" stroke-width="4.92496" stroke-linecap="round" stroke-linejoin="round"/>
<path d="M18.833 18.2673C18.8221 18.475 18.7532 18.6769 18.6304 18.852L10.5592 30.2409C10.3366 30.5538 9.97008 30.7326 9.58566 30.7125C9.20123 30.6924 8.85552 30.4764 8.66692 30.1421L1.83514 17.9753C1.63713 17.6212 1.64652 17.1871 1.86335 16.8428C2.07878 16.4968 2.46432 16.2967 2.87109 16.3179L17.774 17.0959C18.1808 17.1171 18.5433 17.3563 18.7212 17.7228C18.8062 17.8954 18.8427 18.0833 18.833 18.2673Z" fill="white"/>
<path d="M40.1042 28.6371C40.1114 28.4318 40.1759 28.2316 40.2939 28.0567L48.0601 16.6818C48.2744 16.3694 48.6329 16.1867 49.0125 16.1999C49.3921 16.2131 49.737 16.4202 49.9288 16.7468L56.8795 28.6335C57.081 28.9796 57.0792 29.408 56.8712 29.7515C56.6647 30.0964 56.2878 30.3005 55.8861 30.2865L41.1692 29.7746C40.7675 29.7607 40.4058 29.5309 40.2239 29.1724C40.137 29.0036 40.0978 28.8188 40.1042 28.6371Z" fill="white"/>
</g>
</svg>
