<svg width="43" height="42" viewBox="0 0 43 42" fill="none" xmlns="http://www.w3.org/2000/svg">
<g opacity="0.84992" clip-path="url(#clip0_1450_3453)">
<path opacity="0.4" d="M30.9706 0H11.6237C4.57342 0 0.578857 3.99456 0.578857 11.0448V30.3733C0.578857 37.4237 4.57342 41.4183 11.6237 41.4183H30.9706C38.0209 41.4183 41.9971 37.4237 41.9971 30.3733V11.0448C41.9971 3.99456 38.0209 0 30.9706 0Z" fill="white"/>
<path d="M11.6963 15.2617C10.7575 15.2617 9.98438 16.0348 9.98438 16.992V31.2215C9.98438 32.1604 10.7575 32.9335 11.6963 32.9335C12.6535 32.9335 13.4267 32.1604 13.4267 31.2215V16.992C13.4267 16.0348 12.6535 15.2617 11.6963 15.2617Z" fill="white"/>
<path d="M21.3614 8.46875C20.4225 8.46875 19.6494 9.24189 19.6494 10.1991V31.2211C19.6494 32.16 20.4225 32.9332 21.3614 32.9332C22.3186 32.9332 23.0917 32.16 23.0917 31.2211V10.1991C23.0917 9.24189 22.3186 8.46875 21.3614 8.46875Z" fill="white"/>
<path d="M30.8964 22.7695C29.9392 22.7695 29.166 23.5427 29.166 24.4999V31.2189C29.166 32.1577 29.9392 32.9308 30.878 32.9308C31.8352 32.9308 32.6084 32.1577 32.6084 31.2189V24.4999C32.6084 23.5427 31.8352 22.7695 30.8964 22.7695Z" fill="white"/>
</g>
<defs>
<clipPath id="clip0_1450_3453">
<rect width="42" height="42" fill="white" transform="translate(0.25293)"/>
</clipPath>
</defs>
</svg>
