<svg width="43" height="41" viewBox="0 0 43 41" fill="none" xmlns="http://www.w3.org/2000/svg">
<g opacity="0.84992" clip-path="url(#clip0_1450_3435)">
<path opacity="0.4" d="M3.00417 8.51172H26.8014C27.9023 8.51172 28.7958 9.40471 28.7958 10.505C28.7958 11.6053 27.9023 12.4983 26.8014 12.4983H3.00417C1.90326 12.4983 1.00977 11.6053 1.00977 10.505C1.00977 9.40471 1.90326 8.51172 3.00417 8.51172Z" fill="white"/>
<mask id="mask0_1450_3435" style="mask-type:alpha" maskUnits="userSpaceOnUse" x="24" y="0" width="18" height="22">
<path fill-rule="evenodd" clip-rule="evenodd" d="M24.6719 21.4653V0H41.833V21.4653H24.6719Z" fill="white"/>
</mask>
<g mask="url(#mask0_1450_3435)">
<path d="M26.0188 0.183594C26.2702 0.183594 26.518 0.253592 26.7371 0.390003L40.9894 9.3662C41.3808 9.61389 41.6198 10.0429 41.6198 10.5059C41.6198 10.969 41.3808 11.398 40.9894 11.6457L26.7371 20.6219C26.3223 20.8821 25.7979 20.8983 25.3687 20.6596C24.9376 20.4226 24.6719 19.9721 24.6719 19.4822V1.52975C24.6719 1.03975 24.9376 0.589236 25.3687 0.352312C25.5716 0.239234 25.7961 0.183594 26.0188 0.183594Z" fill="white"/>
</g>
<path opacity="0.4" d="M39.5719 32.0608H15.7747C14.6737 32.0608 13.7803 31.1678 13.7803 30.0675C13.7803 28.9671 14.6737 28.0742 15.7747 28.0742H39.5719C40.6728 28.0742 41.5663 28.9671 41.5663 30.0675C41.5663 31.1678 40.6728 32.0608 39.5719 32.0608Z" fill="white"/>
<mask id="mask1_1450_3435" style="mask-type:alpha" maskUnits="userSpaceOnUse" x="0" y="19" width="18" height="22">
<path fill-rule="evenodd" clip-rule="evenodd" d="M17.7686 19.1055V40.5707H0.607422V19.1055H17.7686Z" fill="white"/>
</mask>
<g mask="url(#mask1_1450_3435)">
<path d="M16.4213 40.387C16.1698 40.387 15.922 40.317 15.703 40.1806L1.45067 31.2044C1.05917 30.9567 0.820312 30.5277 0.820312 30.0646C0.820312 29.6016 1.05917 29.1726 1.45067 28.9249L15.703 19.9488C16.1178 19.6884 16.6422 19.6723 17.0714 19.911C17.5024 20.1479 17.7682 20.5984 17.7682 21.0885V39.0409C17.7682 39.5308 17.5024 39.9814 17.0714 40.2183C16.8684 40.3313 16.644 40.387 16.4213 40.387Z" fill="white"/>
</g>
</g>
<defs>
<clipPath id="clip0_1450_3435">
<rect width="42" height="41" fill="white" transform="translate(0.25293)"/>
</clipPath>
</defs>
</svg>
