<svg width="23" height="26" viewBox="0 0 23 26" fill="none" xmlns="http://www.w3.org/2000/svg">
<g clip-path="url(#clip0_1450_9314)">
<path d="M16.5186 16.3966L13.066 12.9375L1.64111 24.5402C1.75032 24.4989 1.85619 24.4493 1.95776 24.3917L16.5186 16.3966Z" fill="white"/>
<path d="M0.00850522 1.74187C0.0144238 3.15719 0.107148 22.0255 0.116026 23.2152C0.0902982 23.4629 0.125802 23.7131 0.219399 23.9437C0.312996 24.1743 0.4618 24.3782 0.652648 24.5375L12.5668 12.4389L0.600367 0.445312C0.393848 0.587304 0.229684 0.782953 0.125431 1.01133C0.0211803 1.23971 -0.0192362 1.49223 0.00850522 1.74187Z" fill="white"/>
<path d="M17.1585 8.78125L13.561 12.4343L17.1625 16.0419L22.1124 13.3232C22.7043 12.9955 23.3336 12.1602 22.1124 11.4921L17.1585 8.78125Z" fill="white"/>
<path d="M1.95772 0.460128C1.7996 0.376081 1.62738 0.322059 1.44971 0.300781L13.0631 11.9351L16.5156 8.42947L1.95772 0.460128Z" fill="white"/>
</g>
<defs>
<clipPath id="clip0_1450_9314">
<rect width="23" height="25" fill="white" transform="translate(0 0.300781)"/>
</clipPath>
</defs>
</svg>
